<?xml version="1.0" standalone="no"?>
<!DOCTYPE svg PUBLIC "-//W3C//DTD SVG 20010904//EN"
 "http://www.w3.org/TR/2001/REC-SVG-20010904/DTD/svg10.dtd">
<svg version="1.0" xmlns="http://www.w3.org/2000/svg"
 width="753.000000pt" height="456.000000pt" viewBox="0 0 753.000000 456.000000"
 preserveAspectRatio="xMidYMid meet">

<g transform="translate(0.000000,456.000000) scale(0.100000,-0.100000)"
fill="#000000" stroke="none">
<path d="M0 2280 l0 -2280 3765 0 3765 0 -1 1853 0 1852 -58 -120 c-63 -132
-92 -164 -189 -212 -45 -22 -60 -25 -111 -19 -44 5 -77 2 -131 -13 -89 -25
-168 -18 -308 28 -103 34 -128 37 -167 19 -26 -12 -32 -36 -15 -68 8 -16 3
-23 -36 -49 -25 -17 -55 -31 -68 -31 -33 0 -85 28 -133 71 -52 48 -90 57 -233
54 -136 -2 -245 -30 -405 -102 -123 -56 -177 -93 -215 -145 -40 -55 -51 -94
-59 -225 l-7 -111 -46 -70 c-26 -39 -59 -99 -74 -134 -46 -109 -81 -172 -121
-218 -39 -43 -42 -44 -114 -51 -94 -8 -283 -75 -274 -97 6 -16 130 -193 244
-351 97 -132 135 -212 135 -281 1 -106 -55 -184 -218 -305 -128 -94 -221 -149
-396 -234 -128 -62 -142 -66 -242 -63 -50 2 -58 5 -58 21 0 11 5 23 10 26 20
13 9 25 -22 25 -61 0 -65 12 -27 75 19 32 51 77 71 100 43 49 212 167 308 215
36 18 79 43 97 56 17 13 59 34 94 47 35 13 64 28 66 33 2 5 -27 24 -64 43 -85
45 -163 104 -237 180 -32 34 -67 61 -78 61 -10 0 -40 -21 -66 -47 -92 -93
-120 -136 -150 -228 -24 -71 -30 -83 -36 -64 -6 23 -7 23 -17 5 -38 -64 -123
-367 -159 -568 -17 -95 -38 -199 -46 -232 -14 -52 -13 -63 1 -104 13 -39 14
-58 4 -122 -10 -66 -10 -80 5 -108 21 -41 42 -54 150 -91 106 -38 143 -62 163
-110 l15 -36 -38 -32 c-20 -18 -56 -38 -78 -44 -42 -11 -147 -5 -176 11 -9 5
-38 2 -70 -6 -101 -26 -205 -14 -256 29 -24 21 -27 33 -39 146 -11 112 -11
133 7 235 21 118 20 170 -6 410 -8 79 -17 123 -27 130 -15 12 -38 100 -46 176
-3 25 -11 52 -18 60 -7 8 -15 41 -18 74 -3 32 -7 60 -10 62 -2 2 -17 0 -34 -5
-18 -5 -34 -7 -37 -3 -12 12 -5 80 9 92 8 7 15 17 15 23 0 6 -3 7 -7 4 -3 -4
-12 1 -19 11 -11 15 -16 15 -34 4 -12 -7 -24 -12 -26 -10 -2 2 35 60 82 129
47 68 98 149 113 179 35 68 68 188 55 199 -17 16 -100 30 -234 41 -74 6 -162
15 -195 20 -127 21 -242 8 -525 -56 -179 -41 -207 -52 -255 -105 -35 -39 -98
-156 -136 -251 -11 -28 -87 -156 -170 -285 -215 -335 -204 -304 -203 -553 0
-228 10 -287 65 -390 51 -96 78 -115 192 -134 112 -18 151 -35 171 -74 18 -36
28 -104 18 -120 -6 -9 -47 -17 -118 -23 -60 -5 -120 -12 -134 -16 -42 -11
-223 -2 -251 13 -15 7 -40 35 -57 61 -31 48 -191 500 -237 668 -30 107 -34
251 -10 330 9 27 20 78 26 114 8 55 8 66 -6 73 -8 5 -15 16 -15 24 0 12 -7 14
-30 9 -29 -6 -30 -6 -23 25 l6 32 -31 -16 c-17 -9 -42 -16 -56 -16 l-25 0 20
48 c43 96 46 156 10 150 -9 -2 -15 3 -13 10 1 8 -6 12 -20 11 -64 -6 -78 0
-78 31 0 17 -1 30 -3 30 -2 0 -25 -20 -53 -44 -27 -25 -128 -102 -224 -172
-225 -163 -308 -233 -346 -292 -113 -173 -143 -221 -156 -247 -26 -51 -117
-398 -118 -448 0 -39 28 -89 109 -191 86 -107 93 -127 57 -165 -14 -15 -26
-37 -26 -48 0 -26 -44 -63 -76 -63 -13 0 -53 11 -90 25 -36 14 -68 25 -70 25
-2 0 -4 -10 -4 -22 0 -23 -2 -23 -120 -21 -105 1 -123 4 -150 23 -69 49 -78
123 -25 208 27 45 44 97 79 242 25 102 52 202 60 222 11 25 16 69 16 133 0 70
7 123 25 193 23 93 94 305 109 330 4 6 38 30 76 52 82 48 160 121 188 176 33
66 128 363 155 484 15 63 38 176 52 250 32 160 100 373 150 467 19 38 88 138
151 223 64 85 130 174 146 198 38 55 88 191 88 240 0 47 -50 124 -136 209 -52
51 -87 73 -208 133 -80 39 -146 77 -146 84 0 19 85 25 213 15 120 -10 121 -10
392 -134 191 -88 172 -85 405 -67 142 10 244 30 325 63 20 8 126 13 325 14
162 2 327 8 365 14 39 7 250 16 470 21 220 5 420 11 445 14 25 3 88 11 140 17
103 12 189 31 375 86 66 19 174 48 240 63 66 16 158 41 204 55 47 14 101 25
120 25 49 0 198 37 224 55 17 12 38 14 98 9 81 -7 134 5 443 102 60 19 117 34
127 34 26 0 75 45 89 82 16 40 49 78 67 78 7 0 13 9 13 19 0 20 41 33 148 48
42 6 54 16 30 27 -9 3 -7 9 6 20 18 15 -265 16 -3047 16 l-3067 0 0 -2280z"/>
<path d="M6240 4546 c30 -7 75 -23 99 -35 27 -14 52 -20 67 -17 15 4 40 -2 66
-15 23 -12 73 -30 111 -40 92 -26 179 -71 225 -117 49 -49 160 -235 168 -281
9 -56 22 -75 72 -107 40 -26 364 -154 390 -154 5 0 28 -14 50 -30 l42 -30 0
420 0 420 -672 -1 c-557 -1 -663 -3 -618 -13z"/>
</g>
</svg>
